<svg width="90" height="90" viewBox="0 0 90 90" fill="none" xmlns="http://www.w3.org/2000/svg">
<circle cx="45" cy="45" r="44.4" fill="white" stroke="#202527" stroke-width="1.2"/>
<circle cx="45" cy="45" r="39.4" fill="white" stroke="#202527" stroke-width="1.2"/>
<mask id="path-3-inside-1_4_4" fill="white">
<path d="M10 34H80V57H10V34Z"/>
</mask>
<path d="M10 34H80V57H10V34Z" fill="white"/>
<path d="M10 35H80V33H10V35ZM80 56H10V58H80V56Z" fill="#202527" mask="url(#path-3-inside-1_4_4)"/>
<path d="M11.2058 42.26V48H9.9758V42.26H11.2058ZM13.3706 47.6474L13.5674 48H11.1812V47.6474H13.3706ZM13.9692 46.319L13.592 48H11.9848L12.28 47.6474C12.5533 47.6474 12.7939 47.5955 13.0016 47.4916C13.2093 47.3823 13.387 47.2292 13.5346 47.0324C13.6822 46.8301 13.7997 46.5923 13.8872 46.319H13.9692ZM10.0004 47.4014V48H9.3444V47.918C9.3444 47.918 9.3608 47.918 9.3936 47.918C9.43187 47.918 9.451 47.918 9.451 47.918C9.59313 47.918 9.7134 47.8688 9.8118 47.7704C9.91567 47.6665 9.97033 47.5435 9.9758 47.4014H10.0004ZM10.0004 42.8586H9.9758C9.97033 42.7165 9.91567 42.5962 9.8118 42.4978C9.7134 42.3939 9.59313 42.342 9.451 42.342C9.451 42.342 9.43187 42.342 9.3936 42.342C9.3608 42.342 9.3444 42.342 9.3444 42.342V42.26H10.0004V42.8586ZM11.1812 42.8586V42.26H11.8372V42.342C11.8317 42.342 11.8126 42.342 11.7798 42.342C11.747 42.342 11.7306 42.342 11.7306 42.342C11.5885 42.342 11.4655 42.3939 11.3616 42.4978C11.2632 42.5962 11.2113 42.7165 11.2058 42.8586H11.1812ZM16.0699 43.08V48H14.8891V43.08H16.0699ZM17.9887 47.672L18.1773 48H16.0535V47.672H17.9887ZM17.7099 45.4006V45.7286H16.0535V45.4006H17.7099ZM18.0789 43.08V43.408H16.0535V43.08H18.0789ZM18.5135 46.4912L18.2019 48H16.7833L17.0375 47.672C17.2726 47.672 17.4803 47.6255 17.6607 47.5326C17.8466 47.4342 18.0051 47.2975 18.1363 47.1226C18.2675 46.9422 18.3687 46.7317 18.4397 46.4912H18.5135ZM17.7099 45.7122V46.4338H17.6279V46.3682C17.6279 46.1878 17.5705 46.0375 17.4557 45.9172C17.3464 45.7969 17.1961 45.7341 17.0047 45.7286V45.7122H17.7099ZM17.7099 44.6954V45.417H17.0047V45.4006C17.1961 45.3951 17.3464 45.3323 17.4557 45.212C17.5705 45.0863 17.6279 44.9332 17.6279 44.7528V44.6954H17.7099ZM18.0789 43.3916V44.2608H17.9969V44.187C17.9969 43.9465 17.9313 43.7579 17.8001 43.6212C17.6744 43.4845 17.4913 43.4135 17.2507 43.408V43.3916H18.0789ZM18.0789 42.957V43.1538L17.2179 43.08C17.3765 43.08 17.5432 43.0663 17.7181 43.039C17.8931 43.0062 18.0133 42.9789 18.0789 42.957ZM14.9055 47.4834L14.9465 48H14.3397V47.918C14.3397 47.918 14.3561 47.918 14.3889 47.918C14.4217 47.918 14.4409 47.918 14.4463 47.918C14.5666 47.918 14.6677 47.877 14.7497 47.795C14.8372 47.7075 14.8837 47.6037 14.8891 47.4834H14.9055ZM14.9055 43.5966H14.8891C14.8837 43.4709 14.8372 43.367 14.7497 43.285C14.6677 43.203 14.5666 43.162 14.4463 43.162C14.4409 43.162 14.4217 43.162 14.3889 43.162C14.3561 43.162 14.3397 43.162 14.3397 43.162V43.08H14.9465L14.9055 43.5966ZM24.3065 48.1148L24.0687 47.7868C24.3857 47.8087 24.6727 47.8387 24.9297 47.877C25.1866 47.9098 25.4299 47.9508 25.6595 48C25.8891 48.0547 26.1214 48.1175 26.3565 48.1886C26.5915 48.2651 26.843 48.3526 27.1109 48.451C27.3787 48.5549 27.6821 48.6724 28.0211 48.8036C28.3873 48.9457 28.7481 49.0496 29.1035 49.1152C29.4643 49.1808 29.8087 49.2054 30.1367 49.189C30.4647 49.1726 30.7708 49.1152 31.0551 49.0168C31.3393 48.9184 31.5935 48.7763 31.8177 48.5904L31.8669 48.6232C31.8505 48.8801 31.7685 49.1207 31.6209 49.3448C31.4733 49.5689 31.2683 49.7603 31.0059 49.9188C30.7435 50.0773 30.4319 50.1839 30.0711 50.2386C29.7157 50.2987 29.3221 50.2905 28.8903 50.214C28.4584 50.1429 27.9992 49.9844 27.5127 49.7384C27.2065 49.5853 26.9168 49.4186 26.6435 49.2382C26.3701 49.0633 26.1023 48.8938 25.8399 48.7298C25.5829 48.5658 25.3287 48.4264 25.0773 48.3116C24.8258 48.2023 24.5689 48.1367 24.3065 48.1148ZM24.3557 42.1452C25.0117 42.1452 25.5802 42.2682 26.0613 42.5142C26.5478 42.7547 26.9223 43.0964 27.1847 43.5392C27.4471 43.982 27.5783 44.5123 27.5783 45.13C27.5783 45.7423 27.4471 46.2725 27.1847 46.7208C26.9223 47.1636 26.5478 47.508 26.0613 47.754C25.5747 47.9945 25.0062 48.1148 24.3557 48.1148C23.6997 48.1148 23.1284 47.9945 22.6419 47.754C22.1608 47.508 21.7891 47.1636 21.5267 46.7208C21.2643 46.278 21.1331 45.7477 21.1331 45.13C21.1331 44.5177 21.2643 43.9902 21.5267 43.5474C21.7891 43.0991 22.1608 42.7547 22.6419 42.5142C23.1284 42.2682 23.6997 42.1452 24.3557 42.1452ZM24.3557 47.7704C24.7438 47.7704 25.0773 47.6638 25.3561 47.4506C25.6403 47.2319 25.8563 46.9258 26.0039 46.5322C26.1569 46.1386 26.2335 45.6712 26.2335 45.13C26.2335 44.5888 26.1569 44.1214 26.0039 43.7278C25.8563 43.3342 25.6403 43.0308 25.3561 42.8176C25.0773 42.5989 24.7438 42.4896 24.3557 42.4896C23.9675 42.4896 23.6313 42.5989 23.3471 42.8176C23.0683 43.0308 22.8523 43.3342 22.6993 43.7278C22.5517 44.1214 22.4779 44.5888 22.4779 45.13C22.4779 45.6712 22.5544 46.1386 22.7075 46.5322C22.8605 46.9258 23.0765 47.2319 23.3553 47.4506C23.6395 47.6638 23.973 47.7704 24.3557 47.7704ZM29.8487 43.08V46.1714C29.8487 46.6743 29.9635 47.0679 30.1931 47.3522C30.4282 47.6365 30.7534 47.7786 31.1689 47.7786C31.6008 47.7786 31.9342 47.6447 32.1693 47.3768C32.4098 47.1089 32.5328 46.7372 32.5383 46.2616V43.08H33.0795V46.2124C33.0795 46.7973 32.8991 47.2593 32.5383 47.5982C32.183 47.9371 31.6773 48.1066 31.0213 48.1066C30.2286 48.1066 29.6382 47.9399 29.2501 47.6064C28.862 47.2675 28.6679 46.8055 28.6679 46.2206V43.08H29.8487ZM28.6843 43.08V43.5064H28.6679C28.6624 43.4025 28.6242 43.3178 28.5531 43.2522C28.482 43.1866 28.3946 43.1538 28.2907 43.1538C28.2907 43.1538 28.2716 43.1538 28.2333 43.1538C28.195 43.1538 28.1759 43.1538 28.1759 43.1538V43.08H28.6843ZM30.3325 43.08V43.1538C30.3325 43.1538 30.3134 43.1538 30.2751 43.1538C30.2368 43.1538 30.2177 43.1538 30.2177 43.1538C30.1138 43.1538 30.0264 43.1866 29.9553 43.2522C29.8842 43.3178 29.8487 43.4025 29.8487 43.5064H29.8323V43.08H30.3325ZM32.5547 43.08V43.5064H32.5383C32.5328 43.4025 32.4946 43.3178 32.4235 43.2522C32.3524 43.1866 32.2677 43.1538 32.1693 43.1538C32.1693 43.1538 32.1502 43.1538 32.1119 43.1538C32.0736 43.1538 32.0545 43.1538 32.0545 43.1538V43.08H32.5547ZM33.5633 43.08V43.1538C33.5633 43.1538 33.5442 43.1538 33.5059 43.1538C33.4731 43.1538 33.4567 43.1538 33.4567 43.1538C33.3528 43.1538 33.2626 43.1866 33.1861 43.2522C33.115 43.3178 33.0795 43.4025 33.0795 43.5064H33.0631V43.08H33.5633ZM36.1357 42.8586L38.5629 47.959H37.1771L35.6519 44.3592L36.1357 42.8586ZM34.5941 47.4588C34.534 47.6064 34.5422 47.7212 34.6187 47.8032C34.6953 47.8797 34.78 47.918 34.8729 47.918H34.9385V48H33.2985V47.918C33.2985 47.918 33.3095 47.918 33.3313 47.918C33.3532 47.918 33.3641 47.918 33.3641 47.918C33.4735 47.918 33.5883 47.8852 33.7085 47.8196C33.8288 47.7485 33.9272 47.6283 34.0037 47.4588H34.5941ZM36.1357 42.8586L36.1521 43.8426L34.3727 47.9754H33.7659L35.6847 43.8508C35.6957 43.818 35.7203 43.7606 35.7585 43.6786C35.7968 43.5911 35.8378 43.4955 35.8815 43.3916C35.9253 43.2823 35.9663 43.1811 36.0045 43.0882C36.0428 42.9898 36.0647 42.9133 36.0701 42.8586H36.1357ZM36.8491 46.3928V46.7126H34.7581V46.3928H36.8491ZM36.9721 47.4588H38.3251C38.4071 47.6283 38.5083 47.7485 38.6285 47.8196C38.7488 47.8852 38.8636 47.918 38.9729 47.918C38.9729 47.918 38.9839 47.918 39.0057 47.918C39.0276 47.918 39.0385 47.918 39.0385 47.918V48H36.6277V47.918H36.6933C36.7863 47.918 36.871 47.8797 36.9475 47.8032C37.0241 47.7212 37.0323 47.6064 36.9721 47.4588ZM40.8307 43.08V48H39.6499V43.08H40.8307ZM39.6745 47.4834V48H39.0759V47.918C39.0759 47.918 39.0923 47.918 39.1251 47.918C39.1579 47.918 39.177 47.918 39.1825 47.918C39.3082 47.918 39.4175 47.877 39.5105 47.795C39.6034 47.7075 39.6499 47.6037 39.6499 47.4834H39.6745ZM40.8143 47.4834H40.8307C40.8361 47.6037 40.8826 47.7075 40.9701 47.795C41.063 47.877 41.1751 47.918 41.3063 47.918C41.3063 47.918 41.3199 47.918 41.3473 47.918C41.3801 47.918 41.3992 47.918 41.4047 47.918V48H40.8143V47.4834ZM40.8143 43.5966V43.08H41.4047L41.3965 43.162C41.3965 43.162 41.3828 43.162 41.3555 43.162C41.3281 43.162 41.3117 43.162 41.3063 43.162C41.1751 43.162 41.063 43.203 40.9701 43.285C40.8826 43.367 40.8361 43.4709 40.8307 43.5966H40.8143ZM39.6745 43.5966H39.6499C39.6499 43.4709 39.6034 43.367 39.5105 43.285C39.4175 43.203 39.3055 43.162 39.1743 43.162C39.1743 43.162 39.1579 43.162 39.1251 43.162C39.0923 43.162 39.0759 43.162 39.0759 43.162V43.08H39.6745V43.5966ZM46.6327 42.096L49.3141 47.9508H47.8381L46.1325 43.6786L46.6327 42.096ZM44.8697 47.4014C44.8259 47.5107 44.8177 47.6037 44.8451 47.6802C44.8724 47.7567 44.9189 47.8169 44.9845 47.8606C45.0501 47.8989 45.1157 47.918 45.1813 47.918H45.2551V48H43.5003V47.918C43.5003 47.918 43.5139 47.918 43.5413 47.918C43.5631 47.918 43.5741 47.918 43.5741 47.918C43.6998 47.918 43.8283 47.8797 43.9595 47.8032C44.0961 47.7212 44.2082 47.5873 44.2957 47.4014H44.8697ZM46.6327 42.096L46.6655 43.0964L44.6319 47.9754H44.0333L46.1571 43.1702C46.1735 43.1374 46.2008 43.0773 46.2391 42.9898C46.2828 42.8969 46.3265 42.793 46.3703 42.6782C46.4195 42.5634 46.4632 42.4541 46.5015 42.3502C46.5397 42.2409 46.5589 42.1561 46.5589 42.096H46.6327ZM47.4937 46.0484V46.3928H45.0829V46.0484H47.4937ZM47.6167 47.4014H49.0517C49.1446 47.5873 49.2567 47.7212 49.3879 47.8032C49.5191 47.8797 49.6475 47.918 49.7733 47.918C49.7733 47.918 49.7842 47.918 49.8061 47.918C49.8279 47.918 49.8389 47.918 49.8389 47.918V48H47.2313V47.918H47.3051C47.4144 47.918 47.5101 47.8743 47.5921 47.7868C47.6741 47.6939 47.6823 47.5654 47.6167 47.4014ZM50.3538 42.9652L55.1672 47.1964L55.2492 48.1066L50.444 43.8754L50.3538 42.9652ZM50.3866 47.4998V48H49.7798V47.918C49.7798 47.918 49.8017 47.918 49.8454 47.918C49.8891 47.918 49.911 47.918 49.911 47.918C50.0367 47.918 50.1433 47.8797 50.2308 47.8032C50.3183 47.7212 50.362 47.6201 50.362 47.4998H50.3866ZM51.4854 47.4998C51.4909 47.6201 51.5373 47.7212 51.6248 47.8032C51.7123 47.8797 51.8161 47.918 51.9364 47.918C51.9364 47.918 51.9583 47.918 52.002 47.918C52.0512 47.918 52.0758 47.918 52.0758 47.918V48H51.469V47.4998H51.4854ZM50.3538 42.9652L51.4854 44.1952V48H50.362V43.9C50.362 43.6212 50.3483 43.3971 50.321 43.2276C50.2937 43.0527 50.28 42.9652 50.28 42.9652H50.3538ZM55.241 43.08V47.1472C55.241 47.3385 55.2465 47.508 55.2574 47.6556C55.2738 47.7977 55.2875 47.9098 55.2984 47.9918C55.3148 48.0683 55.323 48.1066 55.323 48.1066H55.2492L54.1176 46.8028V43.08H55.241ZM55.2164 43.5802V43.08H55.8314V43.162C55.8314 43.162 55.8068 43.162 55.7576 43.162C55.7139 43.162 55.692 43.162 55.692 43.162C55.5717 43.162 55.4651 43.203 55.3722 43.285C55.2847 43.3615 55.241 43.4599 55.241 43.5802H55.2164ZM54.1176 43.5802C54.1121 43.4599 54.0657 43.3615 53.9782 43.285C53.8962 43.203 53.7923 43.162 53.6666 43.162C53.6666 43.162 53.642 43.162 53.5928 43.162C53.5491 43.162 53.5272 43.162 53.5272 43.162V43.08H54.134V43.5802H54.1176ZM59.0482 43.1046V48H57.8592V43.1046H59.0482ZM60.8358 43.0718V43.3998H56.0798V43.0718H60.8358ZM60.8358 43.3752V44.2444H60.7456V44.1706C60.7511 43.9355 60.6855 43.7497 60.5488 43.613C60.4176 43.4763 60.2345 43.4053 59.9994 43.3998V43.3752H60.8358ZM60.8358 42.9488V43.1538L59.9666 43.0718C60.0705 43.0718 60.1826 43.0663 60.3028 43.0554C60.4231 43.039 60.5324 43.0226 60.6308 43.0062C60.7292 42.9843 60.7976 42.9652 60.8358 42.9488ZM57.8756 47.4834V48H57.3262V47.918C57.3262 47.918 57.3399 47.918 57.3672 47.918C57.4 47.918 57.4164 47.918 57.4164 47.918C57.5367 47.918 57.6378 47.877 57.7198 47.795C57.8073 47.7075 57.8538 47.6037 57.8592 47.4834H57.8756ZM59.0236 47.4834H59.0482C59.0482 47.6037 59.092 47.7075 59.1794 47.795C59.2669 47.877 59.3735 47.918 59.4992 47.918C59.4992 47.918 59.5129 47.918 59.5402 47.918C59.573 47.918 59.5894 47.918 59.5894 47.918V48H59.0236V47.4834ZM56.9162 43.3752V43.3998C56.6757 43.4053 56.4898 43.4763 56.3586 43.613C56.2329 43.7497 56.17 43.9355 56.17 44.1706V44.2444H56.0798V43.3752H56.9162ZM56.0798 42.9488C56.129 42.9597 56.2001 42.9761 56.293 42.998C56.3914 43.0199 56.498 43.039 56.6128 43.0554C56.7331 43.0663 56.8424 43.0718 56.9408 43.0718L56.0798 43.1538V42.9488ZM63.0123 43.08V48H61.8315V43.08H63.0123ZM61.8561 47.4834V48H61.2575V47.918C61.2575 47.918 61.2739 47.918 61.3067 47.918C61.3395 47.918 61.3586 47.918 61.3641 47.918C61.4898 47.918 61.5992 47.877 61.6921 47.795C61.785 47.7075 61.8315 47.6037 61.8315 47.4834H61.8561ZM62.9959 47.4834H63.0123C63.0178 47.6037 63.0642 47.7075 63.1517 47.795C63.2446 47.877 63.3567 47.918 63.4879 47.918C63.4879 47.918 63.5016 47.918 63.5289 47.918C63.5617 47.918 63.5808 47.918 63.5863 47.918V48H62.9959V47.4834ZM62.9959 43.5966V43.08H63.5863L63.5781 43.162C63.5781 43.162 63.5644 43.162 63.5371 43.162C63.5098 43.162 63.4934 43.162 63.4879 43.162C63.3567 43.162 63.2446 43.203 63.1517 43.285C63.0642 43.367 63.0178 43.4709 63.0123 43.5966H62.9959ZM61.8561 43.5966H61.8315C61.8315 43.4709 61.785 43.367 61.6921 43.285C61.5992 43.203 61.4871 43.162 61.3559 43.162C61.3559 43.162 61.3395 43.162 61.3067 43.162C61.2739 43.162 61.2575 43.162 61.2575 43.162V43.08H61.8561V43.5966ZM66.9055 42.9734C67.3319 42.9734 67.7173 43.0335 68.0617 43.1538C68.4115 43.2686 68.7095 43.4381 68.9555 43.6622C69.2069 43.8863 69.3983 44.1569 69.5295 44.474C69.6661 44.7911 69.7345 45.1491 69.7345 45.5482C69.7345 45.9418 69.6661 46.2971 69.5295 46.6142C69.3983 46.9258 69.2069 47.1937 68.9555 47.4178C68.7095 47.6419 68.4115 47.8141 68.0617 47.9344C67.7173 48.0492 67.3319 48.1066 66.9055 48.1066C66.4791 48.1066 66.0909 48.0492 65.7411 47.9344C65.3967 47.8141 65.0987 47.6419 64.8473 47.4178C64.6013 47.1937 64.4099 46.9258 64.2733 46.6142C64.1421 46.2971 64.0765 45.9418 64.0765 45.5482C64.0765 45.1491 64.1421 44.7911 64.2733 44.474C64.4099 44.1569 64.6013 43.8863 64.8473 43.6622C65.0987 43.4381 65.3967 43.2686 65.7411 43.1538C66.0909 43.0335 66.4791 42.9734 66.9055 42.9734ZM66.9055 47.7868C67.2225 47.7868 67.4986 47.6966 67.7337 47.5162C67.9742 47.3303 68.1573 47.0707 68.2831 46.7372C68.4143 46.4037 68.4799 46.0074 68.4799 45.5482C68.4799 45.0835 68.4143 44.6845 68.2831 44.351C68.1573 44.0121 67.9742 43.7524 67.7337 43.572C67.4986 43.3861 67.2225 43.2932 66.9055 43.2932C66.5884 43.2932 66.3123 43.3861 66.0773 43.572C65.8422 43.7524 65.6591 44.0121 65.5279 44.351C65.3967 44.6845 65.3311 45.0835 65.3311 45.5482C65.3311 46.0074 65.3967 46.4037 65.5279 46.7372C65.6591 47.0707 65.8422 47.3303 66.0773 47.5162C66.3123 47.6966 66.5884 47.7868 66.9055 47.7868ZM66.8891 48.0984L66.6431 47.8032C66.9437 47.8251 67.2116 47.8524 67.4467 47.8852C67.6817 47.9125 67.8977 47.9481 68.0945 47.9918C68.2913 48.0355 68.4881 48.0875 68.6849 48.1476C68.8817 48.2077 69.0921 48.2761 69.3163 48.3526C69.5404 48.4346 69.7973 48.533 70.0871 48.6478C70.4096 48.7681 70.7212 48.8555 71.0219 48.9102C71.328 48.9703 71.6177 48.9922 71.8911 48.9758C72.1644 48.9649 72.4186 48.9184 72.6537 48.8364C72.8887 48.7544 73.1019 48.6396 73.2933 48.492L73.3343 48.5166C73.3233 48.7626 73.2523 48.9895 73.1211 49.1972C72.9953 49.4049 72.8204 49.5771 72.5963 49.7138C72.3721 49.8559 72.1043 49.9516 71.7927 50.0008C71.4865 50.05 71.1449 50.0391 70.7677 49.968C70.3959 49.8969 69.9996 49.7521 69.5787 49.5334C69.3163 49.3967 69.0675 49.2491 68.8325 49.0906C68.6029 48.9321 68.3815 48.779 68.1683 48.6314C67.9551 48.4893 67.7446 48.369 67.5369 48.2706C67.3291 48.1777 67.1132 48.1203 66.8891 48.0984ZM71.9378 43.08V46.1714C71.9378 46.6743 72.0526 47.0679 72.2822 47.3522C72.5172 47.6365 72.8425 47.7786 73.258 47.7786C73.6898 47.7786 74.0233 47.6447 74.2584 47.3768C74.4989 47.1089 74.6219 46.7372 74.6274 46.2616V43.08H75.1686V46.2124C75.1686 46.7973 74.9882 47.2593 74.6274 47.5982C74.272 47.9371 73.7664 48.1066 73.1104 48.1066C72.3177 48.1066 71.7273 47.9399 71.3392 47.6064C70.951 47.2675 70.757 46.8055 70.757 46.2206V43.08H71.9378ZM70.7734 43.08V43.5064H70.757C70.7515 43.4025 70.7132 43.3178 70.6422 43.2522C70.5711 43.1866 70.4836 43.1538 70.3798 43.1538C70.3798 43.1538 70.3606 43.1538 70.3224 43.1538C70.2841 43.1538 70.265 43.1538 70.265 43.1538V43.08H70.7734ZM72.4216 43.08V43.1538C72.4216 43.1538 72.4024 43.1538 72.3642 43.1538C72.3259 43.1538 72.3068 43.1538 72.3068 43.1538C72.2029 43.1538 72.1154 43.1866 72.0444 43.2522C71.9733 43.3178 71.9378 43.4025 71.9378 43.5064H71.9214V43.08H72.4216ZM74.6438 43.08V43.5064H74.6274C74.6219 43.4025 74.5836 43.3178 74.5126 43.2522C74.4415 43.1866 74.3568 43.1538 74.2584 43.1538C74.2584 43.1538 74.2392 43.1538 74.201 43.1538C74.1627 43.1538 74.1436 43.1538 74.1436 43.1538V43.08H74.6438ZM75.6524 43.08V43.1538C75.6524 43.1538 75.6332 43.1538 75.595 43.1538C75.5622 43.1538 75.5458 43.1538 75.5458 43.1538C75.4419 43.1538 75.3517 43.1866 75.2752 43.2522C75.2041 43.3178 75.1686 43.4025 75.1686 43.5064H75.1522V43.08H75.6524ZM77.8342 43.08V48H76.6534V43.08H77.8342ZM79.753 47.672L79.9416 48H77.8178V47.672H79.753ZM79.4742 45.4006V45.7286H77.8178V45.4006H79.4742ZM79.8432 43.08V43.408H77.8178V43.08H79.8432ZM80.2778 46.4912L79.9662 48H78.5476L78.8018 47.672C79.0369 47.672 79.2446 47.6255 79.425 47.5326C79.6109 47.4342 79.7694 47.2975 79.9006 47.1226C80.0318 46.9422 80.1329 46.7317 80.204 46.4912H80.2778ZM79.4742 45.7122V46.4338H79.3922V46.3682C79.3922 46.1878 79.3348 46.0375 79.22 45.9172C79.1107 45.7969 78.9603 45.7341 78.769 45.7286V45.7122H79.4742ZM79.4742 44.6954V45.417H78.769V45.4006C78.9603 45.3951 79.1107 45.3323 79.22 45.212C79.3348 45.0863 79.3922 44.9332 79.3922 44.7528V44.6954H79.4742ZM79.8432 43.3916V44.2608H79.7612V44.187C79.7612 43.9465 79.6956 43.7579 79.5644 43.6212C79.4387 43.4845 79.2555 43.4135 79.015 43.408V43.3916H79.8432ZM79.8432 42.957V43.1538L78.9822 43.08C79.1407 43.08 79.3075 43.0663 79.4824 43.039C79.6573 43.0062 79.7776 42.9789 79.8432 42.957ZM76.6698 47.4834L76.7108 48H76.104V47.918C76.104 47.918 76.1204 47.918 76.1532 47.918C76.186 47.918 76.2051 47.918 76.2106 47.918C76.3309 47.918 76.432 47.877 76.514 47.795C76.6015 47.7075 76.6479 47.6037 76.6534 47.4834H76.6698ZM76.6698 43.5966H76.6534C76.6479 43.4709 76.6015 43.367 76.514 43.285C76.432 43.203 76.3309 43.162 76.2106 43.162C76.2051 43.162 76.186 43.162 76.1532 43.162C76.1204 43.162 76.104 43.162 76.104 43.162V43.08H76.7108L76.6698 43.5966Z" fill="#30373A"/>
<path d="M45.2773 11.8125C45.1719 11.0742 43.6953 11.0742 43.5898 11.8477V16.8047C43.5547 16.9102 43.0625 16.9102 43.0273 16.8047C42.9922 15.9258 42.7812 11.918 42.7461 11.8125C42.6406 11.0742 41.1992 11.0742 41.0938 11.8125C41.0586 11.918 40.8477 15.9258 40.8125 16.8047C40.7773 16.9102 40.2852 16.9102 40.25 16.8047V11.8477C40.1445 11.0742 38.668 11.0742 38.5625 11.8125C38.5273 11.9531 38 15.1172 38 16.3125C38 18.1758 38.9492 19.4766 40.3906 20.0039L39.9688 28.3711C39.9336 28.8633 40.3203 29.25 40.8125 29.25H43.0625C43.5195 29.25 43.9062 28.8633 43.9062 28.3711L43.4492 20.0039C44.8906 19.4766 45.875 18.1758 45.875 16.3125C45.875 15.1172 45.3125 11.9531 45.2773 11.8125ZM49.4961 21.832L48.9688 28.3359C48.8984 28.8281 49.3203 29.25 49.8125 29.25H51.7812C52.2383 29.25 52.625 28.8984 52.625 28.4062V12.0938C52.625 11.6367 52.2383 11.25 51.7812 11.25C48.8633 11.25 43.9766 17.543 49.4961 21.832Z" fill="white"/>
<path d="M45.2773 11.8125L44.4854 11.9256L44.4912 11.9665L44.5012 12.0065L45.2773 11.8125ZM43.5898 11.8477L42.7972 11.7396L42.7898 11.7934V11.8477H43.5898ZM43.5898 16.8047L44.3488 17.0577L44.3898 16.9345V16.8047H43.5898ZM43.0273 16.8047L42.228 16.8367L42.2325 16.95L42.2684 17.0577L43.0273 16.8047ZM42.7461 11.8125L41.9541 11.9256L41.9643 11.997L41.9871 12.0655L42.7461 11.8125ZM41.0938 11.8125L41.8527 12.0655L41.8755 11.997L41.8857 11.9256L41.0938 11.8125ZM40.8125 16.8047L41.5714 17.0577L41.6073 16.95L41.6119 16.8367L40.8125 16.8047ZM40.25 16.8047H39.45V16.9345L39.4911 17.0577L40.25 16.8047ZM40.25 11.8477H41.05V11.7934L41.0427 11.7396L40.25 11.8477ZM38.5625 11.8125L39.3386 12.0065L39.3486 11.9665L39.3545 11.9256L38.5625 11.8125ZM40.3906 20.0039L41.1896 20.0442L41.2193 19.4552L40.6655 19.2526L40.3906 20.0039ZM39.9688 28.3711L40.7667 28.4281L40.7673 28.4197L40.7677 28.4114L39.9688 28.3711ZM43.9062 28.3711H44.7063V28.3493L44.7051 28.3275L43.9062 28.3711ZM43.4492 20.0039L43.1744 19.2526L42.6181 19.4561L42.6504 20.0475L43.4492 20.0039ZM49.4961 21.832L50.2935 21.8967L50.3284 21.4657L49.987 21.2003L49.4961 21.832ZM48.9688 28.3359L49.7607 28.4491L49.7642 28.4249L49.7661 28.4006L48.9688 28.3359ZM46.0693 11.6994C46.0017 11.2262 45.709 10.8974 45.3916 10.7094C45.087 10.529 44.7386 10.4597 44.4247 10.4632C44.1105 10.4667 43.7616 10.5439 43.4579 10.7345C43.1401 10.9339 42.8612 11.2703 42.7972 11.7396L44.3825 11.9557C44.3782 11.9872 44.365 12.0221 44.3442 12.0518C44.3252 12.079 44.3087 12.0895 44.3085 12.0896C44.3083 12.0898 44.3112 12.0879 44.3181 12.085C44.3249 12.0821 44.3346 12.0786 44.3473 12.0753C44.3734 12.0684 44.4062 12.0635 44.4425 12.0631C44.4788 12.0627 44.5118 12.0668 44.5381 12.0731C44.5649 12.0796 44.5768 12.0863 44.5764 12.0861C44.5756 12.0856 44.5562 12.074 44.5336 12.0432C44.5223 12.0277 44.5114 12.009 44.5025 11.9875C44.4936 11.9659 44.4881 11.9448 44.4854 11.9256L46.0693 11.6994ZM42.7898 11.8477V16.8047H44.3898V11.8477H42.7898ZM42.8309 16.5517C42.9147 16.3002 43.0944 16.1831 43.1529 16.1489C43.2242 16.1071 43.2803 16.0924 43.2942 16.0889C43.3261 16.0807 43.3305 16.0838 43.3086 16.0838C43.2866 16.0838 43.2911 16.0807 43.323 16.0889C43.3369 16.0924 43.393 16.1071 43.4643 16.1489C43.5228 16.1831 43.7024 16.3002 43.7863 16.5517L42.2684 17.0577C42.361 17.3356 42.5637 17.4757 42.656 17.5297C42.7611 17.5912 42.8617 17.6224 42.9272 17.6391C43.0624 17.6737 43.1987 17.6838 43.3086 17.6838C43.4185 17.6838 43.5548 17.6737 43.69 17.6391C43.7555 17.6224 43.8561 17.5912 43.9612 17.5297C44.0535 17.4757 44.2562 17.3356 44.3488 17.0577L42.8309 16.5517ZM43.8267 16.7727C43.8089 16.3268 43.747 15.0998 43.6855 13.9749C43.6547 13.4116 43.6238 12.8709 43.5984 12.4635C43.5857 12.2603 43.5741 12.0875 43.5645 11.9608C43.5598 11.8981 43.5552 11.8422 43.5508 11.7978C43.5487 11.7763 43.546 11.7516 43.5428 11.7276C43.5413 11.7158 43.5388 11.6985 43.5353 11.6788C43.5335 11.669 43.5248 11.6188 43.505 11.5595L41.9871 12.0655C41.9685 12.0094 41.961 11.9645 41.9605 11.9618C41.9582 11.9491 41.9571 11.9407 41.957 11.9396C41.9566 11.9371 41.9572 11.9409 41.9585 11.9547C41.9611 11.9811 41.9647 12.023 41.9691 12.0817C41.9779 12.1978 41.9889 12.3622 42.0015 12.5633C42.0266 12.9646 42.0572 13.5005 42.0879 14.0622C42.1494 15.1873 42.2107 16.4037 42.228 16.8367L43.8267 16.7727ZM43.5381 11.6994C43.4715 11.2334 43.1882 10.905 42.8742 10.7139C42.5736 10.5308 42.2295 10.4588 41.9199 10.4588C41.6103 10.4588 41.2663 10.5308 40.9656 10.7139C40.6517 10.905 40.3683 11.2334 40.3018 11.6994L41.8857 11.9256C41.8832 11.9432 41.8782 11.963 41.8699 11.9834C41.8616 12.0038 41.8513 12.0218 41.8405 12.0369C41.8188 12.0672 41.7996 12.0793 41.7975 12.0806C41.796 12.0815 41.8061 12.0753 41.8308 12.0691C41.855 12.063 41.8858 12.0588 41.9199 12.0588C41.9541 12.0588 41.9849 12.063 42.0091 12.0691C42.0337 12.0753 42.0438 12.0815 42.0423 12.0806C42.0402 12.0793 42.0211 12.0672 41.9994 12.0369C41.9885 12.0218 41.9782 12.0038 41.97 11.9834C41.9617 11.963 41.9566 11.9432 41.9541 11.9256L43.5381 11.6994ZM40.3348 11.5595C40.315 11.6188 40.3064 11.669 40.3046 11.6788C40.301 11.6985 40.2986 11.7158 40.297 11.7276C40.2938 11.7516 40.2912 11.7763 40.289 11.7978C40.2847 11.8422 40.2801 11.8981 40.2753 11.9608C40.2657 12.0875 40.2542 12.2603 40.2415 12.4635C40.216 12.8709 40.1851 13.4116 40.1543 13.9749C40.0928 15.0998 40.031 16.3268 40.0131 16.7727L41.6119 16.8367C41.6292 16.4037 41.6904 15.1873 41.7519 14.0622C41.7827 13.5005 41.8133 12.9646 41.8384 12.5633C41.8509 12.3622 41.8619 12.1978 41.8707 12.0817C41.8752 12.023 41.8787 11.9811 41.8813 11.9547C41.8827 11.9409 41.8832 11.9371 41.8829 11.9396C41.8828 11.9407 41.8816 11.9491 41.8794 11.9618C41.8789 11.9645 41.8714 12.0094 41.8527 12.0655L40.3348 11.5595ZM40.0536 16.5517C40.1374 16.3002 40.317 16.1831 40.3755 16.1489C40.4469 16.1071 40.5029 16.0924 40.5168 16.0889C40.5487 16.0807 40.5532 16.0838 40.5312 16.0838C40.5093 16.0838 40.5138 16.0807 40.5457 16.0889C40.5596 16.0924 40.6156 16.1071 40.687 16.1489C40.7455 16.1831 40.9251 16.3002 41.0089 16.5517L39.4911 17.0577C39.5837 17.3356 39.7864 17.4757 39.8787 17.5297C39.9838 17.5912 40.0844 17.6224 40.1499 17.6391C40.2851 17.6737 40.4214 17.6838 40.5312 17.6838C40.6411 17.6838 40.7774 17.6737 40.9126 17.6391C40.9781 17.6224 41.0787 17.5912 41.1838 17.5297C41.2761 17.4757 41.4788 17.3356 41.5714 17.0577L40.0536 16.5517ZM41.05 16.8047V11.8477H39.45V16.8047H41.05ZM41.0427 11.7396C40.9787 11.2703 40.6997 10.9339 40.382 10.7345C40.0783 10.5439 39.7293 10.4667 39.4151 10.4632C39.1013 10.4597 38.7529 10.529 38.4482 10.7094C38.1308 10.8974 37.8381 11.2262 37.7705 11.6994L39.3545 11.9256C39.3517 11.9448 39.3462 11.9659 39.3373 11.9875C39.3285 12.009 39.3176 12.0277 39.3062 12.0432C39.2837 12.074 39.2643 12.0856 39.2635 12.0861C39.2631 12.0863 39.2749 12.0796 39.3017 12.0731C39.3281 12.0668 39.361 12.0627 39.3974 12.0631C39.4337 12.0635 39.4665 12.0684 39.4926 12.0753C39.5052 12.0786 39.515 12.0821 39.5218 12.085C39.5286 12.0879 39.5316 12.0898 39.5314 12.0896C39.5311 12.0895 39.5146 12.079 39.4956 12.0518C39.4749 12.0221 39.4616 11.9872 39.4573 11.9557L41.0427 11.7396ZM37.7864 11.6185C37.7563 11.7386 37.6098 12.6136 37.476 13.5544C37.3413 14.5018 37.2 15.6485 37.2 16.3125H38.8C38.8 15.7812 38.9224 14.7482 39.0601 13.7796C39.1274 13.3065 39.1958 12.8657 39.2494 12.535C39.3074 12.1777 39.3403 11.9997 39.3386 12.0065L37.7864 11.6185ZM37.2 16.3125C37.2 18.4847 38.3344 20.1035 40.1158 20.7552L40.6655 19.2526C39.564 18.8496 38.8 17.8669 38.8 16.3125H37.2ZM39.5916 19.9636L39.1698 28.3308L40.7677 28.4114L41.1896 20.0442L39.5916 19.9636ZM39.1708 28.3141C39.1002 29.3027 39.8901 30.05 40.8125 30.05V28.45C40.7948 28.45 40.7835 28.4467 40.7771 28.444C40.7705 28.4412 40.7673 28.4384 40.7665 28.4375C40.7657 28.4367 40.7663 28.4372 40.7669 28.4386C40.7677 28.4407 40.766 28.4383 40.7667 28.4281L39.1708 28.3141ZM40.8125 30.05H43.0625V28.45H40.8125V30.05ZM43.0625 30.05C43.9825 30.05 44.7063 29.2837 44.7063 28.3711H43.1062C43.1062 28.4036 43.0946 28.4247 43.0822 28.4375C43.0757 28.4441 43.0699 28.4474 43.0667 28.4489C43.064 28.4501 43.063 28.45 43.0625 28.45V30.05ZM44.7051 28.3275L44.248 19.9603L42.6504 20.0475L43.1074 28.4147L44.7051 28.3275ZM43.7241 20.7552C45.4939 20.1077 46.675 18.4975 46.675 16.3125H45.075C45.075 17.854 44.2873 18.8454 43.1744 19.2526L43.7241 20.7552ZM46.675 16.3125C46.675 15.6441 46.5236 14.4938 46.3803 13.5473C46.2371 12.6011 46.0822 11.7334 46.0535 11.6185L44.5012 12.0065C44.5008 12.0047 44.5363 12.1893 44.5972 12.5426C44.6541 12.8732 44.7268 13.3139 44.7984 13.7867C44.9451 14.7562 45.075 15.7856 45.075 16.3125H46.675ZM48.6987 21.7674L48.1714 28.2713L49.7661 28.4006L50.2935 21.8967L48.6987 21.7674ZM48.1768 28.2228C48.0277 29.2664 48.9063 30.05 49.8125 30.05V28.45C49.8041 28.45 49.7946 28.4482 49.7846 28.4438C49.774 28.4392 49.7656 28.4328 49.7604 28.4273C49.7554 28.422 49.7564 28.4208 49.7583 28.4266C49.7593 28.4295 49.7603 28.4335 49.7608 28.4382C49.7613 28.443 49.761 28.4469 49.7607 28.4491L48.1768 28.2228ZM49.8125 30.05H51.7812V28.45H49.8125V30.05ZM51.7812 30.05C52.6581 30.05 53.425 29.362 53.425 28.4062H51.825C51.825 28.4233 51.8219 28.4311 51.8211 28.433C51.8201 28.4354 51.8189 28.4372 51.8171 28.4389C51.8136 28.4423 51.803 28.45 51.7812 28.45V30.05ZM53.425 28.4062V12.0938H51.825V28.4062H53.425ZM53.425 12.0938C53.425 11.1949 52.6801 10.45 51.7812 10.45V12.05C51.7818 12.05 51.7841 12.05 51.7888 12.052C51.7942 12.0544 51.8015 12.0589 51.8088 12.0662C51.8161 12.0735 51.8206 12.0808 51.823 12.0862C51.825 12.0909 51.825 12.0932 51.825 12.0938H53.425ZM51.7812 10.45C50.7895 10.45 49.7596 10.9678 48.9025 11.6877C48.0277 12.4225 47.2378 13.4445 46.7383 14.6197C46.2373 15.7986 46.0176 17.1601 46.3343 18.5472C46.6531 19.9432 47.4991 21.2934 49.0052 22.4637L49.987 21.2003C48.7333 20.2261 48.1203 19.1813 47.8942 18.191C47.666 17.192 47.8154 16.176 48.2109 15.2455C48.6079 14.3114 49.2419 13.4921 49.9315 12.9129C50.6389 12.3188 51.314 12.05 51.7812 12.05V10.45Z" fill="#202527"/>
<path d="M33.0469 69.2812L32.0312 71.3594L29.7344 71.6875C29.3281 71.75 29.1719 72.25 29.4688 72.5469L31.1094 74.1562L30.7188 76.4219C30.6562 76.8281 31.0938 77.1406 31.4531 76.9531L33.5 75.875L35.5312 76.9531C35.8906 77.1406 36.3281 76.8281 36.2656 76.4219L35.875 74.1562L37.5156 72.5469C37.8125 72.25 37.6562 71.75 37.25 71.6875L34.9688 71.3594L33.9375 69.2812C33.7656 68.9219 33.2344 68.9062 33.0469 69.2812ZM44.4469 69.2812L43.4312 71.3594L41.1344 71.6875C40.7281 71.75 40.5719 72.25 40.8687 72.5469L42.5094 74.1562L42.1187 76.4219C42.0562 76.8281 42.4937 77.1406 42.8531 76.9531L44.9 75.875L46.9312 76.9531C47.2906 77.1406 47.7281 76.8281 47.6656 76.4219L47.275 74.1562L48.9156 72.5469C49.2125 72.25 49.0562 71.75 48.65 71.6875L46.3687 71.3594L45.3375 69.2812C45.1656 68.9219 44.6344 68.9062 44.4469 69.2812ZM55.8469 69.2812L54.8312 71.3594L52.5344 71.6875C52.1281 71.75 51.9719 72.25 52.2687 72.5469L53.9094 74.1562L53.5187 76.4219C53.4562 76.8281 53.8937 77.1406 54.2531 76.9531L56.3 75.875L58.3312 76.9531C58.6906 77.1406 59.1281 76.8281 59.0656 76.4219L58.675 74.1562L60.3156 72.5469C60.6125 72.25 60.4562 71.75 60.05 71.6875L57.7687 71.3594L56.7375 69.2812C56.5656 68.9219 56.0344 68.9062 55.8469 69.2812Z" fill="#30373A"/>
</svg>
